# Blender v2.83.1 OBJ File: 'Orca_LowPoly.blend'
# www.blender.org
mtllib Orca_LowPoly.mtl
o Orca_LowPoly_Plano
v -0.208889 -0.125183 -0.645628
v -0.040395 0.672209 -0.713079
v 3.016386 0.932169 -0.537885
v 3.215481 0.117387 -0.375900
v 0.241160 -0.390355 -0.693190
v 0.944670 -0.519236 -0.640041
v 2.737470 -0.224516 -0.511301
v 3.644276 1.925428 -0.728378
v 2.859410 0.595490 -0.627410
v 2.843358 1.072961 -0.310073
v 2.175540 1.171139 -0.556187
v 1.892488 1.276295 -0.625064
v 1.237111 1.343613 -0.659464
v 0.691353 1.221020 -0.688906
v 0.199055 0.962005 -0.710033
v 3.111581 1.297174 -0.585585
v 2.298443 0.700249 -0.655118
v 0.758404 0.218017 -0.696517
v 0.173851 0.107887 -0.715510
v 3.495628 0.773765 -0.365024
v 2.417708 -0.349631 -0.556935
v -0.241271 0.176789 -0.663374
v 0.175919 0.536894 -0.705668
v 0.716476 0.675131 -0.791943
v 1.933180 0.824404 -0.673374
v 2.473272 0.821916 -0.607649
v 2.785130 0.838538 -0.509789
v 2.946649 0.999420 -0.402070
v 2.233912 0.802403 -0.654084
v -0.252069 0.055976 -0.681759
v 3.053006 0.334906 -0.591329
v 0.202245 -0.147729 -0.713444
v 0.826360 -0.156654 -0.728458
v 1.514987 -0.076027 -0.664554
v 2.031363 0.014480 -0.656489
v 2.439928 0.077186 -0.645078
v 3.420526 1.884308 -0.674285
v 3.268406 0.701578 -0.601598
v 2.106169 -0.441957 -0.606936
v 1.453719 0.414499 -0.696322
v 1.343039 0.856571 -0.713106
v 3.239628 0.165287 0.189734
v 3.668220 1.066425 0.190384
v 2.745675 1.109302 0.162886
v 1.885764 1.266978 0.135706
v 1.124324 1.327093 0.112685
v 0.176309 0.993699 0.089396
v 3.185605 1.281033 0.173469
v 3.545408 0.554911 0.193532
v -0.273588 -0.107075 0.090752
v 3.347454 1.244920 0.178670
v 1.569040 1.586422 -0.108717
v 2.229996 1.126085 0.147610
v 1.893545 1.263470 -0.130814
v 2.071348 -0.418416 0.163310
v -0.062076 0.711816 0.086147
v 3.118847 1.309641 -0.125679
v 3.426500 1.924095 -0.567850
v 1.155657 1.330309 -0.141123
v -0.312674 0.142045 0.086331
v 0.684816 1.253502 0.100822
v 1.641160 -0.499445 -0.646598
v 0.110017 -0.407265 0.105903
v 3.598137 1.897407 -0.496374
v 0.997174 -0.524529 0.133346
v 2.608051 -0.238840 0.176615
v 3.549201 0.521338 -0.031051
v 2.802460 1.114339 -0.085133
v 3.236466 0.156818 -0.018575
v 1.909961 1.846340 0.128786
v 1.499601 1.644311 -0.092342
v 1.869757 1.837649 -0.015435
v 1.488802 1.646657 0.119119
v 1.849165 1.634236 -0.112982
v 1.851833 1.568797 0.130743
v 1.850328 -0.316319 -0.963746
v 1.766208 -0.242625 -0.965642
v 1.864734 -0.230154 -0.966073
v 2.037142 -0.404889 -0.792574
v 1.977743 -0.065737 -0.817617
v 1.697332 -0.456031 -0.817579
v 1.589071 -0.121677 -0.814023
v -0.246922 -0.067622 0.640206
v -0.080595 0.733050 0.646021
v 2.981874 0.984402 0.628933
v 3.188024 0.158942 0.552361
v 0.198837 -0.326299 0.737715
v 0.903915 -0.457553 0.737873
v 2.701958 -0.170769 0.689312
v 3.600055 1.992356 0.766696
v 2.819002 0.656647 0.738741
v 2.822957 1.103837 0.379653
v 2.142046 1.221831 0.576198
v 1.855703 1.331969 0.618596
v 1.199618 1.400358 0.608130
v 0.652752 1.279442 0.616155
v 0.159383 1.022049 0.631246
v 3.075053 1.352458 0.649389
v 2.257657 0.761980 0.723849
v 0.716588 0.281304 0.717220
v 0.131645 0.171766 0.711455
v 3.470058 0.812465 0.499474
v 2.379732 -0.292155 0.726992
v -0.279497 0.234642 0.628981
v 0.135422 0.598186 0.663493
v 0.670312 0.745000 0.768816
v 1.892281 0.886304 0.709371
v 2.435301 0.879384 0.676104
v 2.752431 0.888027 0.595717
v 2.920447 1.039076 0.483780
v 2.193568 0.863462 0.709894
v -0.291678 0.115924 0.657409
v 3.013701 0.394395 0.737551
v 0.159436 -0.082937 0.733896
v 0.781552 -0.088839 0.786435
v 1.472960 -0.012420 0.756319
v 1.989150 0.078368 0.770680
v 2.397841 0.140884 0.777836
v 3.379777 1.945981 0.703387
v 3.229087 0.761086 0.727732
v 2.065544 -0.380471 0.766571
v 1.411221 0.478820 0.740500
v 1.300911 0.920331 0.711193
v 3.245621 0.156217 -0.012877
v 3.675883 1.054827 -0.068692
v 2.753439 1.097551 -0.099597
v 1.893841 1.254754 -0.137372
v 1.132530 1.314672 -0.164764
v 0.183915 0.982187 -0.167765
v 3.193678 1.268813 -0.099501
v 3.552121 0.544752 -0.033400
v -0.268023 -0.115497 -0.097380
v 3.355457 1.232808 -0.091900
v 1.564096 1.593905 0.058447
v 2.237803 1.114269 -0.116325
v 1.885878 1.275074 0.128390
v 2.076279 -0.425879 -0.003407
v -0.054989 0.701091 -0.153431
v 3.109468 1.323837 0.191439
v 3.392124 1.976123 0.594363
v 1.148846 1.340617 0.089147
v -0.306644 0.132919 -0.117530
v 0.692895 1.241274 -0.172324
v 1.598854 -0.435416 0.783710
v 0.115013 -0.414827 -0.063017
v 3.567607 1.943613 0.535804
v 1.001932 -0.531730 -0.027504
v 2.613305 -0.246791 -0.001009
v 3.542571 0.531372 0.193114
v 2.795509 1.124861 0.149898
v 3.230155 0.166370 0.194805
v 1.919118 1.832482 -0.180787
v 1.495897 1.649917 0.032902
v 1.870453 1.836594 -0.038988
v 1.497596 1.633348 -0.178191
v 1.843606 1.642649 0.074943
v 1.860473 1.555720 -0.161383
v 1.789434 -0.224156 1.095026
v 1.705543 -0.150810 1.085370
v 1.803904 -0.138090 1.090497
v 1.985785 -0.327160 0.943764
v 1.925907 0.012715 0.934881
v 1.644958 -0.376763 0.953146
v 1.537979 -0.044349 0.913376
vt 0.394970 0.720607
vt 0.492455 1.000000
vt 0.500000 0.720607
vt 0.557298 1.000000
vt 0.625000 0.720607
vt 0.562500 0.720607
vt 0.721831 0.720607
vt 0.719868 1.000000
vt 0.750000 0.527842
vt 0.691103 0.720607
vt 0.375000 0.220607
vt 0.398580 0.441214
vt 0.500135 0.220501
vt 0.500000 1.000000
vt 0.500000 1.000000
vt 0.439186 1.000000
vt 0.378954 1.000000
vt 0.250000 1.000000
vt 0.375000 1.000000
vt 0.727216 0.977366
vt 0.750000 0.453391
vt 0.750000 0.441214
vt 0.000000 0.220607
vt 0.000000 0.485948
vt 0.000000 0.496306
vt 0.579297 1.000000
vt 0.500000 1.000000
vt 0.375000 1.000000
vt 0.437500 1.000000
vt 0.437500 1.000000
vt 0.375000 1.000000
vt 0.374699 0.000000
vt 0.456287 0.000000
vt 0.500000 0.000000
vt 0.375000 0.000000
vt 0.506826 0.000000
vt 0.250000 0.441214
vt 0.250000 0.220607
vt 0.125000 0.220607
vt 0.125000 0.441214
vt 0.750000 0.220607
vt 0.721831 0.220607
vt 0.721831 0.441214
vt 0.125000 0.720607
vt 0.000000 1.000000
vt 0.125000 1.000000
vt 0.250000 0.720607
vt 0.250000 1.000000
vt 0.691103 0.441214
vt 0.691103 0.220607
vt 0.580742 0.220607
vt 0.580786 0.441214
vt 0.750000 0.000000
vt 0.721831 0.000000
vt 0.498837 0.220607
vt 0.497461 0.220607
vt 0.750000 0.220607
vt 0.750000 0.220607
vt 0.500000 1.000000
vt 0.750000 0.000000
vt 0.750000 0.000000
vt 0.721831 0.000000
vt 0.721831 0.000000
vt 0.720165 1.000000
vt 0.000000 1.000000
vt 0.125000 1.000000
vt 0.375000 1.000000
vt 0.375000 0.220607
vt 0.375000 0.220607
vt 0.394970 0.720607
vt 0.500000 0.720607
vt 0.492455 1.000000
vt 0.557298 1.000000
vt 0.562500 0.720607
vt 0.625000 0.720607
vt 0.721831 0.720607
vt 0.750000 0.527842
vt 0.719868 1.000000
vt 0.691103 0.720607
vt 0.375000 0.220607
vt 0.500135 0.220501
vt 0.398580 0.441214
vt 0.500000 1.000000
vt 0.439186 1.000000
vt 0.500000 1.000000
vt 0.378954 1.000000
vt 0.375000 1.000000
vt 0.250000 1.000000
vt 0.727216 0.977366
vt 0.750000 0.441214
vt 0.750000 0.453391
vt 0.000000 0.220607
vt 0.000000 0.496306
vt 0.000000 0.485948
vt 0.579297 1.000000
vt 0.500000 1.000000
vt 0.375000 1.000000
vt 0.437500 1.000000
vt 0.437500 1.000000
vt 0.375000 1.000000
vt 0.374699 0.000000
vt 0.500000 0.000000
vt 0.456287 0.000000
vt 0.375000 0.000000
vt 0.506826 0.000000
vt 0.250000 0.441214
vt 0.125000 0.441214
vt 0.125000 0.220607
vt 0.250000 0.220607
vt 0.721831 0.441214
vt 0.721831 0.220607
vt 0.750000 0.220607
vt 0.125000 0.720607
vt 0.125000 1.000000
vt 0.000000 1.000000
vt 0.250000 0.720607
vt 0.250000 1.000000
vt 0.691103 0.441214
vt 0.580786 0.441214
vt 0.580742 0.220607
vt 0.691103 0.220607
vt 0.721831 0.000000
vt 0.750000 0.000000
vt 0.497461 0.220607
vt 0.498837 0.220607
vt 0.750000 0.220607
vt 0.750000 0.220607
vt 0.500000 1.000000
vt 0.750000 0.000000
vt 0.750000 0.000000
vt 0.721831 0.000000
vt 0.721831 0.000000
vt 0.720165 1.000000
vt 0.000000 1.000000
vt 0.125000 1.000000
vt 0.375000 1.000000
vt 0.375000 0.220607
vt 0.375000 0.220607
vt 0.625000 0.000000
vt 0.562500 0.000000
vt 0.605315 0.000000
vt 0.250000 0.000000
vt 0.250000 0.000000
vt 0.691103 0.000000
vt 0.125000 0.000000
vt 0.000000 0.000000
vt 0.494100 0.000000
vt 0.691103 0.000000
vt 0.691103 0.000000
vt 0.000000 0.013204
vt 0.125000 0.000000
vt 0.562500 0.000000
vt 0.625000 0.000000
vt 0.605315 0.000000
vt 0.250000 0.000000
vt 0.250000 0.000000
vt 0.691103 0.000000
vt 0.125000 0.000000
vt 0.000000 0.000000
vt 0.494100 0.000000
vt 0.691103 0.000000
vt 0.691103 0.000000
vt 0.000000 0.013204
vt 0.125000 0.000000
vn 0.0729 0.1125 -0.9910
vn 0.1612 0.2770 -0.9473
vn -0.6887 -0.0637 -0.7223
vn -0.1756 0.6633 -0.7274
vn 0.0263 -0.0613 -0.9978
vn 0.9766 -0.2050 -0.0657
vn -0.1649 0.9863 -0.0079
vn -0.4976 0.8459 0.1919
vn -0.9907 0.1022 -0.0896
vn -0.0574 0.9800 -0.1907
vn -0.7587 0.6021 -0.2487
vn 0.0898 0.9956 0.0256
vn 0.1000 0.9941 0.0412
vn 0.9623 0.0322 -0.2702
vn 0.0351 0.3107 -0.9499
vn -0.0542 0.2110 -0.9760
vn 0.1625 -0.7927 -0.5876
vn 0.1371 -0.9699 -0.2012
vn -0.0007 0.0472 -0.9989
vn 0.0449 0.0069 -0.9990
vn -0.2400 -0.0371 -0.9701
vn -0.0022 -0.0581 -0.9983
vn -0.1010 0.1004 -0.9898
vn 0.0506 0.1561 -0.9864
vn 0.3256 0.4833 -0.8126
vn 0.0724 -0.0246 -0.9971
vn 0.0391 0.0914 -0.9950
vn 0.1877 0.1942 -0.9628
vn 0.0469 -0.0090 -0.9989
vn 0.0294 -0.0094 -0.9995
vn -0.3053 0.5134 -0.8020
vn 0.1687 0.3675 -0.9146
vn 0.0619 -0.0165 -0.9979
vn -0.8459 0.1539 -0.5106
vn 0.1793 0.1232 -0.9761
vn 0.0901 -0.1082 -0.9900
vn -0.1208 0.0233 -0.9924
vn 0.4127 -0.2184 -0.8843
vn 0.7251 0.0324 -0.6879
vn -0.4512 0.7415 0.4966
vn 0.0646 0.1231 -0.9903
vn 0.3788 0.9255 -0.0011
vn 0.1619 0.6788 0.7162
vn 0.9725 -0.1355 -0.1893
vn -0.3616 0.9302 -0.0639
vn 0.0317 0.9991 0.0276
vn -0.5266 0.8500 -0.0147
vn 0.9933 -0.0978 -0.0615
vn -0.9202 0.3874 -0.0565
vn -0.0837 0.0393 -0.9957
vn -0.0347 0.9986 -0.0388
vn -0.4586 0.8875 -0.0443
vn -0.1980 0.9798 -0.0277
vn -0.8932 0.4492 -0.0206
vn -0.7660 0.6408 -0.0499
vn 0.3503 0.9362 0.0290
vn -0.4456 0.8952 0.0091
vn 0.1258 0.9906 0.0537
vn 0.0073 0.0756 -0.9971
vn -0.0884 0.4380 -0.8946
vn -0.6629 0.7464 -0.0586
vn 0.9931 0.1152 0.0239
vn -0.6308 -0.2945 -0.7179
vn -0.0010 -0.0268 -0.9996
vn -0.1054 0.7093 -0.6970
vn -0.1459 0.9135 -0.3798
vn -0.8895 -0.2820 -0.3596
vn 0.9304 0.1246 -0.3446
vn 0.1621 -0.9544 -0.2508
vn 0.0146 0.2007 0.9795
vn 0.1058 0.3609 0.9266
vn -0.7302 -0.0008 0.6832
vn -0.2164 0.7252 0.6537
vn -0.0327 0.0281 0.9991
vn 0.9704 -0.1957 0.1413
vn -0.1625 0.9826 -0.0900
vn -0.4832 0.8241 -0.2957
vn -0.9940 0.1072 0.0215
vn -0.0660 0.9929 0.0987
vn -0.7705 0.6199 0.1488
vn 0.0938 0.9896 -0.1091
vn 0.1048 0.9867 -0.1238
vn 0.9447 0.0587 0.3225
vn -0.0202 0.3944 0.9187
vn -0.1111 0.2972 0.9483
vn 0.1255 -0.7366 0.6645
vn 0.1224 -0.9477 0.2948
vn -0.0595 0.1362 0.9889
vn -0.0141 0.0962 0.9953
vn -0.2969 0.0490 0.9537
vn -0.0612 0.0312 0.9976
vn -0.1590 0.1881 0.9692
vn -0.0072 0.2436 0.9698
vn 0.2783 0.5548 0.7840
vn 0.0134 0.0647 0.9978
vn -0.0194 0.1800 0.9835
vn 0.1311 0.2799 0.9510
vn -0.0122 0.0803 0.9967
vn -0.0297 0.0799 0.9964
vn -0.3507 0.5821 0.7336
vn 0.1154 0.4481 0.8865
vn 0.0029 0.0728 0.9973
vn -0.8742 0.1966 0.4440
vn 0.1217 0.2103 0.9700
vn 0.0313 -0.0192 0.9993
vn -0.1790 0.1115 0.9775
vn 0.3592 -0.1374 0.9231
vn 0.6834 0.0956 0.7238
vn -0.4192 0.6930 -0.5866
vn 0.0064 0.2112 0.9774
vn 0.3805 0.9229 -0.0592
vn 0.2056 0.6126 -0.7632
vn 0.9593 -0.1155 0.2576
vn -0.3622 0.9312 -0.0408
vn 0.0359 0.9927 -0.1147
vn -0.5243 0.8465 -0.0923
vn 0.9877 -0.0893 0.1285
vn -0.9209 0.3884 -0.0327
vn -0.1422 0.1278 0.9816
vn -0.0343 0.9980 -0.0526
vn -0.4581 0.8867 -0.0622
vn -0.1967 0.9778 -0.0716
vn -0.8916 0.4469 -0.0723
vn -0.7660 0.6407 -0.0528
vn 0.3538 0.9308 -0.0917
vn -0.4419 0.8896 -0.1152
vn 0.1314 0.9822 -0.1344
vn -0.0513 0.1643 0.9851
vn -0.1398 0.5159 0.8452
vn -0.6633 0.7469 -0.0474
vn 0.9930 0.1152 0.0245
vn -0.6728 -0.2309 0.7028
vn -0.0600 0.0625 0.9962
vn -0.1444 0.7684 0.6235
vn -0.1657 0.9434 0.2875
vn -0.9099 -0.2511 0.3302
vn 0.9088 0.1574 0.3864
vn 0.1445 -0.9277 0.3442
vn 0.2176 -0.2082 -0.9536
vn 0.3580 -0.9325 0.0479
vn 0.0283 -0.9996 -0.0088
vn -0.0379 -0.0978 -0.9945
vn 0.1153 -0.1463 -0.9825
vn 0.6638 -0.3211 -0.6755
vn 0.3259 -0.3115 -0.8926
vn 0.0497 -0.1188 -0.9917
vn 0.0102 -0.1742 -0.9847
vn -0.1692 -0.1621 -0.9721
vn 0.0969 -0.9941 0.0480
vn 0.7720 -0.6325 0.0626
vn 0.5559 -0.8276 0.0775
vn -0.9859 -0.1558 -0.0603
vn 0.5384 -0.8423 0.0261
vn -0.9661 -0.2460 -0.0788
vn 0.8391 -0.4877 -0.2408
vn -0.1518 -0.9882 -0.0215
vn -0.5617 -0.8243 -0.0710
vn 0.1196 -0.9922 0.0357
vn 0.3012 -0.9521 0.0539
vn 0.1604 -0.1217 0.9795
vn 0.3578 -0.9321 0.0567
vn 0.0251 -0.9947 0.0996
vn -0.0967 -0.0087 0.9953
vn 0.0567 -0.0577 0.9967
vn 0.6219 -0.2578 0.7394
vn 0.2719 -0.2297 0.9345
vn -0.0092 -0.0296 0.9995
vn -0.0484 -0.0855 0.9952
vn -0.2267 -0.0751 0.9711
vn 0.0969 -0.9942 0.0467
vn 0.7727 -0.6335 0.0398
vn 0.5573 -0.8298 0.0296
vn -0.9882 -0.1524 0.0157
vn 0.5368 -0.8398 0.0810
vn -0.9697 -0.2405 0.0434
vn 0.8222 -0.4620 0.3324
vn -0.1554 -0.9827 0.1007
vn -0.5671 -0.8161 0.1110
vn 0.1189 -0.9911 0.0601
vn 0.3013 -0.9523 0.0492
usemtl Material.001
s off
f 41/1/1 12/2/1 25/3/1
f 11/4/2 26/5/2 29/6/2
f 28/7/3 10/8/3 16/9/3
f 10/8/4 28/7/4 27/10/4
f 34/11/5 40/12/5 35/13/5
f 75/14/6 74/15/6 70/16/6
f 59/17/7 61/18/7 46/19/7
f 68/20/8 48/21/8 57/22/8
f 30/23/9 60/24/9 22/25/9
f 10/8/10 53/26/10 68/20/10
f 10/8/11 68/20/11 16/9/11
f 12/2/12 59/17/12 54/27/12
f 13/28/13 59/17/13 12/2/13
f 72/29/14 70/16/14 74/15/14
f 52/30/15 71/31/15 72/29/15
f 59/17/16 71/31/16 52/30/16
f 81/32/17 76/33/17 79/34/17
f 62/35/18 81/32/18 39/36/18
f 18/37/19 33/38/19 32/39/19 19/40/19
f 40/12/20 34/11/20 33/38/20 18/37/20
f 16/9/21 37/41/21 38/42/21 3/43/21
f 23/44/22 22/25/22 2/45/22 15/46/22
f 24/47/23 23/44/23 15/46/23 14/48/23
f 41/1/24 24/47/24 14/48/24 13/28/24
f 27/10/25 26/5/25 11/4/25 10/8/25
f 9/49/26 31/50/26 36/51/26 17/52/26
f 38/42/27 31/50/27 9/49/27 3/43/27
f 11/4/28 29/6/28 25/3/28 12/2/28
f 29/6/29 17/52/29 35/13/29 25/3/29
f 35/13/30 17/52/30 36/51/30
f 3/43/31 9/49/31 27/10/31 28/7/31
f 9/49/32 17/52/32 26/5/32 27/10/32
f 25/3/33 35/13/33 40/12/33 41/1/33
f 3/43/34 28/7/34 16/9/34
f 29/6/35 26/5/35 17/52/35
f 40/12/36 18/37/36 24/47/36 41/1/36
f 22/25/37 23/44/37 19/40/37
f 37/41/38 8/53/38 20/54/38 38/42/38
f 76/33/39 78/55/39 80/56/39 79/34/39
f 51/57/40 58/58/40 57/22/40 48/21/40
f 13/28/41 12/2/41 41/1/41
f 54/27/42 45/59/42 53/26/42
f 51/57/43 43/60/43 64/61/43 58/58/43
f 43/60/44 49/62/44 67/63/44 64/61/44
f 68/20/45 44/64/45 48/21/45
f 68/20/46 53/26/46 44/64/46
f 16/9/47 68/20/47 57/22/47
f 64/61/48 67/63/48 20/54/48 8/53/48
f 56/65/49 2/45/49 22/25/49 60/24/49
f 19/40/50 32/39/50 30/23/50 22/25/50
f 58/58/51 64/61/51 8/53/51 37/41/51
f 47/66/52 61/18/52 14/48/52 15/46/52
f 61/18/53 59/17/53 13/28/53 14/48/53
f 58/58/54 37/41/54 16/9/54 57/22/54
f 47/66/55 15/46/55 2/45/55 56/65/55
f 54/27/56 53/26/56 11/4/56 12/2/56
f 73/67/57 70/16/57 72/29/57 71/31/57
f 10/8/58 11/4/58 53/26/58
f 74/15/59 54/27/59 59/17/59 52/30/59
f 52/30/60 72/29/60 74/15/60
f 71/31/61 59/17/61 46/19/61 73/67/61
f 74/15/62 75/14/62 45/59/62 54/27/62
f 77/68/63 76/33/63 81/32/63 82/69/63
f 76/33/64 77/68/64 78/55/64
f 77/68/65 82/69/65 80/56/65 78/55/65
f 82/69/66 34/11/66 35/13/66 80/56/66
f 82/69/67 81/32/67 62/35/67 34/11/67
f 79/34/68 80/56/68 35/13/68 39/36/68
f 39/36/69 81/32/69 79/34/69
f 123/70/70 107/71/70 94/72/70
f 93/73/71 111/74/71 108/75/71
f 110/76/72 98/77/72 92/78/72
f 92/78/73 109/79/73 110/76/73
f 116/80/74 117/81/74 122/82/74
f 157/83/75 152/84/75 156/85/75
f 141/86/76 128/87/76 143/88/76
f 150/89/77 139/90/77 130/91/77
f 112/92/78 104/93/78 142/94/78
f 92/78/79 150/89/79 135/95/79
f 92/78/80 98/77/80 150/89/80
f 94/72/81 136/96/81 141/86/81
f 95/97/82 94/72/82 141/86/82
f 154/98/83 156/85/83 152/84/83
f 134/99/84 154/98/84 153/100/84
f 141/86/85 134/99/85 153/100/85
f 163/101/86 161/102/86 158/103/86
f 144/104/87 121/105/87 163/101/87
f 100/106/88 101/107/88 114/108/88 115/109/88
f 122/82/89 100/106/89 115/109/89 116/80/89
f 98/77/90 85/110/90 120/111/90 119/112/90
f 105/113/91 97/114/91 84/115/91 104/93/91
f 106/116/92 96/117/92 97/114/92 105/113/92
f 123/70/93 95/97/93 96/117/93 106/116/93
f 109/79/94 92/78/94 93/73/94 108/75/94
f 91/118/95 99/119/95 118/120/95 113/121/95
f 120/111/96 85/110/96 91/118/96 113/121/96
f 93/73/97 94/72/97 107/71/97 111/74/97
f 111/74/98 107/71/98 117/81/98 99/119/98
f 117/81/99 118/120/99 99/119/99
f 85/110/100 110/76/100 109/79/100 91/118/100
f 91/118/101 109/79/101 108/75/101 99/119/101
f 107/71/102 123/70/102 122/82/102 117/81/102
f 85/110/103 98/77/103 110/76/103
f 111/74/104 99/119/104 108/75/104
f 122/82/105 123/70/105 106/116/105 100/106/105
f 104/93/106 101/107/106 105/113/106
f 119/112/107 120/111/107 102/122/107 90/123/107
f 158/103/108 161/102/108 162/124/108 160/125/108
f 133/126/109 130/91/109 139/90/109 140/127/109
f 95/97/110 123/70/110 94/72/110
f 136/96/111 135/95/111 127/128/111
f 133/126/112 140/127/112 146/129/112 125/130/112
f 125/130/113 146/129/113 149/131/113 131/132/113
f 150/89/114 130/91/114 126/133/114
f 150/89/115 126/133/115 135/95/115
f 98/77/116 139/90/116 150/89/116
f 146/129/117 90/123/117 102/122/117 149/131/117
f 138/134/118 142/94/118 104/93/118 84/115/118
f 101/107/119 104/93/119 112/92/119 114/108/119
f 140/127/120 119/112/120 90/123/120 146/129/120
f 129/135/121 97/114/121 96/117/121 143/88/121
f 143/88/122 96/117/122 95/97/122 141/86/122
f 140/127/123 139/90/123 98/77/123 119/112/123
f 129/135/124 138/134/124 84/115/124 97/114/124
f 136/96/125 94/72/125 93/73/125 135/95/125
f 155/136/126 153/100/126 154/98/126 152/84/126
f 92/78/127 135/95/127 93/73/127
f 156/85/128 134/99/128 141/86/128 136/96/128
f 134/99/129 156/85/129 154/98/129
f 153/100/130 155/136/130 128/87/130 141/86/130
f 156/85/131 136/96/131 127/128/131 157/83/131
f 159/137/132 164/138/132 163/101/132 158/103/132
f 158/103/133 160/125/133 159/137/133
f 159/137/134 160/125/134 162/124/134 164/138/134
f 164/138/135 162/124/135 117/81/135 116/80/135
f 164/138/136 116/80/136 144/104/136 163/101/136
f 161/102/137 121/105/137 117/81/137 162/124/137
f 121/105/138 161/102/138 163/101/138
usemtl Material.002
f 36/51/139 7/139/139 21/140/139
f 7/139/140 66/141/140 21/140/140
f 6/142/141 62/35/141 65/143/141
f 18/37/142 19/40/142 23/44/142 24/47/142
f 21/140/143 39/36/143 35/13/143 36/51/143
f 38/42/144 20/54/144 4/144/144 31/50/144
f 31/50/145 4/144/145 7/139/145 36/51/145
f 34/11/146 62/35/146 6/142/146 33/38/146
f 33/38/147 6/142/147 5/145/147 32/39/147
f 32/39/148 5/145/148 1/146/148 30/23/148
f 62/35/149 55/147/149 65/143/149
f 49/62/150 42/148/150 69/149/150 67/63/150
f 66/141/151 7/139/151 4/144/151 69/149/151
f 30/23/152 50/150/152 60/24/152
f 69/149/153 42/148/153 66/141/153
f 30/23/154 1/146/154 50/150/154
f 67/63/155 69/149/155 4/144/155 20/54/155
f 63/151/156 5/145/156 6/142/156 65/143/156
f 63/151/157 50/150/157 1/146/157 5/145/157
f 39/36/158 55/147/158 62/35/158
f 55/147/159 39/36/159 21/140/159 66/141/159
f 118/120/160 103/152/160 89/153/160
f 89/153/161 103/152/161 148/154/161
f 88/155/162 147/156/162 144/104/162
f 100/106/163 106/116/163 105/113/163 101/107/163
f 103/152/164 118/120/164 117/81/164 121/105/164
f 120/111/165 113/121/165 86/157/165 102/122/165
f 113/121/166 118/120/166 89/153/166 86/157/166
f 116/80/167 115/109/167 88/155/167 144/104/167
f 115/109/168 114/108/168 87/158/168 88/155/168
f 114/108/169 112/92/169 83/159/169 87/158/169
f 144/104/170 147/156/170 137/160/170
f 131/132/171 149/131/171 151/161/171 124/162/171
f 148/154/172 151/161/172 86/157/172 89/153/172
f 112/92/173 142/94/173 132/163/173
f 151/161/174 148/154/174 124/162/174
f 112/92/175 132/163/175 83/159/175
f 149/131/176 102/122/176 86/157/176 151/161/176
f 145/164/177 147/156/177 88/155/177 87/158/177
f 145/164/178 87/158/178 83/159/178 132/163/178
f 121/105/179 144/104/179 137/160/179
f 137/160/180 148/154/180 103/152/180 121/105/180
